<svg width="25" height="25" viewBox="0 0 25 25" fill="none" xmlns="http://www.w3.org/2000/svg">
<circle cx="12.5" cy="12.5" r="12.5" fill="white"/>
<g clip-path="url(#clip0_2731_30075)">
<path d="M8.57271 12.4095C8.56807 12.5893 8.59026 12.7689 8.63855 12.9423C8.69174 13.0905 8.7558 13.2346 8.83018 13.3735C8.85682 13.4145 8.87135 13.4622 8.8721 13.5112C8.8721 13.571 8.83617 13.6309 8.75835 13.6907L8.38121 13.9422C8.33571 13.975 8.2816 13.9937 8.22557 13.9961C8.15739 13.9914 8.09338 13.9615 8.04598 13.9123C7.96529 13.8256 7.8931 13.7314 7.8304 13.6309C7.77054 13.5291 7.71062 13.4153 7.64482 13.2777C7.17787 13.8283 6.59116 14.1037 5.88471 14.1037C5.38167 14.1037 4.98074 13.96 4.6874 13.6725C4.39407 13.3851 4.24438 13.0021 4.24438 12.5232C4.24438 12.0143 4.42397 11.6013 4.78918 11.29C5.15438 10.9787 5.63925 10.823 6.25587 10.823C6.46823 10.8247 6.68024 10.8407 6.89046 10.8709C7.11197 10.9008 7.33947 10.9487 7.57891 11.0026V10.5656C7.57891 10.1105 7.48309 9.79333 7.29755 9.60772C7.10591 9.42214 6.7827 9.33234 6.32171 9.33234C6.10385 9.33233 5.88678 9.35846 5.67515 9.41016C5.45507 9.46259 5.23901 9.53061 5.02858 9.61371C4.9605 9.64417 4.89051 9.67016 4.81905 9.69152C4.78805 9.70174 4.75583 9.70779 4.72323 9.70949C4.63943 9.70949 4.59751 9.64964 4.59751 9.52391V9.23057C4.59751 9.13475 4.60948 9.06289 4.63943 9.02104C4.6846 8.96647 4.74207 8.92338 4.80711 8.89531C5.04723 8.77651 5.30038 8.6861 5.56143 8.62593C5.86648 8.54765 6.18043 8.50942 6.49535 8.51218C7.20789 8.51218 7.72859 8.6738 8.06385 8.99708C8.39312 9.32037 8.56073 9.81126 8.56073 10.4698V12.4095H8.57271ZM6.14216 13.3194C6.35217 13.3171 6.56042 13.2807 6.75878 13.2117C6.97851 13.1356 7.17456 13.0035 7.32749 12.8284C7.42399 12.718 7.49366 12.5869 7.53103 12.4451C7.57217 12.2746 7.59227 12.0997 7.59089 11.9243V11.6731C7.40937 11.6289 7.22552 11.5949 7.04021 11.5713C6.85353 11.5477 6.66555 11.5357 6.47738 11.5356C6.07628 11.5356 5.78294 11.6134 5.58539 11.7751C5.38783 11.9368 5.29205 12.1642 5.29205 12.4636C5.29205 12.7449 5.36391 12.9545 5.51356 13.0981C5.65728 13.2478 5.86678 13.3197 6.14216 13.3197V13.3194ZM10.9494 13.966C10.8416 13.966 10.7698 13.948 10.7219 13.9061C10.674 13.8702 10.6321 13.7864 10.5962 13.6726L9.18926 9.04499C9.16199 8.96753 9.14391 8.88713 9.1354 8.80545C9.1354 8.70963 9.18331 8.65577 9.27912 8.65577H9.8658C9.97955 8.65577 10.0574 8.67373 10.0993 8.71562C10.1472 8.75155 10.1831 8.83539 10.2191 8.94911L11.2248 12.9122L12.1587 8.94921C12.1886 8.82944 12.2245 8.75165 12.2724 8.71572C12.3203 8.67979 12.4041 8.65587 12.512 8.65587H12.9911C13.1048 8.65587 13.1827 8.67384 13.2306 8.71572C13.2785 8.75165 13.3204 8.83549 13.3444 8.94921L14.2903 12.9602L15.3256 8.94921C15.3615 8.82944 15.4034 8.75165 15.4454 8.71572C15.4933 8.67979 15.5711 8.65587 15.6789 8.65587H16.2356C16.3314 8.65587 16.3853 8.70378 16.3853 8.80555C16.3839 8.83776 16.3799 8.86981 16.3733 8.90137C16.3639 8.95244 16.3499 9.00254 16.3314 9.05105L14.8886 13.6787C14.8527 13.7984 14.8108 13.8763 14.7629 13.9122C14.6952 13.9555 14.6156 13.9764 14.5354 13.972H14.0205C13.9068 13.972 13.8289 13.9541 13.781 13.9122C13.7331 13.8703 13.6912 13.7924 13.6672 13.6726L12.7394 9.81126L11.8174 13.6667C11.7875 13.7864 11.7516 13.8642 11.7037 13.9062C11.6557 13.9482 11.5719 13.9661 11.4641 13.9661L10.9494 13.966ZM18.6422 14.1276C18.3317 14.1279 18.0223 14.0918 17.7203 14.0198C17.4209 13.948 17.1874 13.8702 17.0318 13.7803C16.936 13.7264 16.8702 13.6666 16.8462 13.6126C16.8229 13.5598 16.8107 13.5027 16.8103 13.4449V13.1398C16.8103 13.0141 16.8582 12.9543 16.948 12.9543C16.9846 12.9544 17.021 12.9604 17.0558 12.9722C17.0917 12.9842 17.1455 13.0081 17.2054 13.0321C17.4169 13.1251 17.6377 13.1953 17.864 13.2416C18.0985 13.2892 18.3371 13.3133 18.5764 13.3135C18.9535 13.3135 19.2469 13.2476 19.4504 13.1159C19.548 13.0571 19.6281 12.9734 19.6828 12.8736C19.7375 12.7737 19.7648 12.6611 19.7619 12.5472C19.764 12.4701 19.7508 12.3934 19.723 12.3215C19.6953 12.2495 19.6535 12.1838 19.6002 12.1281C19.4925 12.0144 19.2888 11.9125 18.9956 11.8167L18.1273 11.5474C17.6903 11.4097 17.367 11.2062 17.1695 10.9367C16.9768 10.6883 16.8715 10.3831 16.8702 10.0686C16.8653 9.83683 16.921 9.60778 17.0318 9.4041C17.1387 9.2115 17.2858 9.0441 17.463 8.91321C17.6496 8.77195 17.8606 8.66638 18.0856 8.6018C18.3307 8.53126 18.5847 8.49703 18.8397 8.5002C18.9738 8.49923 19.1078 8.50723 19.2408 8.52416C19.3785 8.54212 19.5043 8.56608 19.63 8.59C19.7497 8.61994 19.8635 8.64985 19.9712 8.68581C20.0586 8.71284 20.1428 8.74895 20.2227 8.79357C20.2932 8.82912 20.3546 8.88032 20.4023 8.94326C20.4412 9.00151 20.4601 9.07086 20.4561 9.14081V9.42217C20.4561 9.5479 20.4082 9.61381 20.3184 9.61381C20.2705 9.61381 20.1927 9.58985 20.0909 9.54194C19.7497 9.38629 19.3665 9.30846 18.9415 9.30846C18.6002 9.30846 18.3308 9.36232 18.1453 9.47614C17.9597 9.58996 17.8639 9.76359 17.8639 10.009C17.8623 10.0884 17.8774 10.1674 17.9084 10.2406C17.9393 10.3139 17.9854 10.3798 18.0435 10.434C18.1633 10.5478 18.3847 10.6615 18.702 10.7633L19.5521 11.0325C19.9833 11.1702 20.2945 11.3618 20.4801 11.6072C20.6628 11.8481 20.7597 12.1431 20.7554 12.4454C20.7585 12.6858 20.7052 12.9237 20.5998 13.1398C20.4936 13.3447 20.3445 13.5244 20.1628 13.6666C19.9651 13.8205 19.7394 13.9344 19.4982 14.002C19.221 14.0873 18.9323 14.1297 18.6422 14.1277L18.6422 14.1276Z" fill="#252F3E"/>
<path d="M19.7737 17.037C17.8041 18.4918 14.9425 19.264 12.482 19.264C9.03372 19.2642 5.92666 17.989 3.57999 15.8697C3.39441 15.7021 3.56202 15.4746 3.78353 15.6062C6.32184 17.079 9.45286 17.9709 12.6916 17.9709C14.8767 17.9709 17.2773 17.5158 19.4864 16.582C19.8157 16.4323 20.097 16.7976 19.7739 17.0371L19.7737 17.037Z" fill="#FF9900"/>
<path d="M20.5938 16.1032C20.3423 15.7799 18.9295 15.9476 18.2889 16.0254C18.0973 16.0493 18.0674 15.8817 18.241 15.756C19.3665 14.9658 21.2164 15.1932 21.4319 15.4567C21.6475 15.7261 21.372 17.5759 20.3184 18.462C20.1568 18.5997 20.0011 18.5278 20.0729 18.3482C20.3124 17.7555 20.8452 16.4205 20.5938 16.1032Z" fill="#FF9900"/>
</g>
<defs>
<clipPath id="clip0_2731_30075">
<rect width="18" height="10.7639" fill="white" transform="translate(3.50012 8.50018)"/>
</clipPath>
</defs>
</svg>
