<svg width="60" height="60" viewBox="0 0 60 60" fill="none" xmlns="http://www.w3.org/2000/svg">
<g clip-path="url(#clip0_2731_30569)">
<path d="M20 30C20 27.25 17.75 25 15 25C12.25 25 10 27.25 10 30C10 32.75 12.25 35 15 35C17.75 35 20 32.75 20 30ZM25 30C25 32.75 27.25 35 30 35C32.75 35 35 32.75 35 30C35 27.25 32.75 25 30 25C27.25 25 25 27.25 25 30ZM40 30C40 32.75 42.25 35 45 35C47.75 35 50 32.75 50 30C50 27.25 47.75 25 45 25C42.25 25 40 27.25 40 30Z" fill="black" fill-opacity="0.25"/>
</g>
<defs>
<clipPath id="clip0_2731_30569">
<rect width="60" height="60" fill="white" transform="matrix(0 -1 1 0 0 60)"/>
</clipPath>
</defs>
</svg>
