<svg width="203" height="108" viewBox="0 0 203 108" fill="none" xmlns="http://www.w3.org/2000/svg">
<g opacity="0.5">
<rect width="100" height="100" transform="translate(103 8)" fill="white"/>
<path d="M153 58V16.3334C176.013 16.3334 194.667 34.9875 194.667 58H153Z" fill="#D8D8FF"/>
<path d="M153 58L173.833 94.0833C180.164 90.4232 185.422 85.1627 189.079 78.8295C192.735 72.4963 194.662 65.313 194.667 58H153Z" fill="#7F98FF"/>
<path d="M173.833 94.0834L153 58V16.3334C129.987 16.3417 111.337 35 111.346 58.0125C111.354 81.025 130.012 99.675 153.029 99.6667C160.333 99.6638 167.507 97.7412 173.833 94.0917L173.846 94.0709L173.833 94.0834Z" fill="#1339C0"/>
</g>
<g clip-path="url(#clip0_2731_30535)">
<path d="M99.2188 17.1875C99.2188 7.71035 91.5084 0 82.0312 0C69.7221 0 61.3855 12.6414 66.2242 23.9346C55.8111 27.4055 53.4383 28.1937 53.3225 28.2402C48.4689 19.7766 39.3426 14.0625 28.9062 14.0625C13.398 14.0625 0.78125 26.6793 0.78125 42.1875C0.78125 52.1629 6.00215 60.941 13.8543 65.9355C13.9541 66.0174 14.0648 66.0855 14.183 66.141C23.1227 71.6561 34.391 71.6996 43.3574 66.3072L57.3152 76.7744C49.4451 85.9111 56.0221 100 67.9688 100C75.7289 100 82.0312 93.6801 82.0312 85.9375C82.0312 74.3705 68.8246 67.8447 59.643 74.6135L46.0811 64.4432C56.4723 56.4059 59.7252 42.5984 54.7336 31.0586L67.7391 26.7234C69.1785 28.8738 71.09 30.6822 73.3242 32.0006C73.3918 32.0479 73.4637 32.0893 73.5385 32.1256C78.7016 35.0727 85.1762 35.1783 90.5244 32.1256C90.5992 32.0893 90.6711 32.0479 90.7387 32.0006C95.8092 29.0086 99.2188 23.4893 99.2188 17.1875ZM16.4062 63.8314V57.8125C16.4062 50.9199 22.0137 45.3125 28.9062 45.3125C35.8141 45.3125 41.4062 50.9043 41.4062 57.8125V63.8314C33.6891 68.3055 24.1336 68.3115 16.4062 63.8314ZM21.0938 34.375C21.0938 30.0672 24.5984 26.5625 28.9062 26.5625C33.2141 26.5625 36.7188 30.0672 36.7188 34.375C36.7188 38.6828 33.2141 42.1875 28.9062 42.1875C24.5984 42.1875 21.0938 38.6828 21.0938 34.375ZM66.4062 85.2852C66.4062 84.4236 67.1072 83.7227 67.9688 83.7227C68.8303 83.7227 69.5312 84.4236 69.5312 85.2852C69.5312 86.1467 68.8303 86.8477 67.9688 86.8477C67.1072 86.8477 66.4062 86.1467 66.4062 85.2852ZM64.8438 96.4178V93.0977C64.8438 91.3746 66.2457 89.9727 67.9688 89.9727C69.6926 89.9727 71.0938 91.3699 71.0938 93.0977V96.4178C69.0527 97.0273 66.8861 97.0277 64.8438 96.4178ZM78.9062 85.9375C78.9062 89.6457 77.0496 92.9268 74.2188 94.9057C74.2188 92.9559 74.5133 90.2 71.717 88.0969C74.0182 85.0369 71.8404 80.5979 67.9688 80.5979C64.0986 80.5979 61.9168 85.0363 64.2219 88.0988C62.7031 89.2398 61.7188 91.0559 61.7188 93.0977V94.9055C58.8879 92.9266 57.0312 89.6457 57.0312 85.9373C57.0312 79.9064 61.9379 74.9998 67.9688 74.9998C73.9996 74.9998 78.9062 79.9066 78.9062 85.9375ZM44.5312 61.6877V57.8125C44.5312 51.3018 40.5701 45.7928 35.0309 43.4322C37.933 41.4635 39.8438 38.1383 39.8438 34.375C39.8438 28.3441 34.9371 23.4375 28.9062 23.4375C22.8754 23.4375 17.9688 28.3441 17.9688 34.375C17.9688 38.141 19.882 41.4684 22.7877 43.4365C17.2043 45.8219 13.2812 51.3672 13.2812 57.8125V61.6877C7.56973 57.102 3.90625 50.065 3.90625 42.1875C3.90625 28.4023 15.1211 17.1875 28.9062 17.1875C42.6914 17.1875 53.9062 28.4023 53.9062 42.1875C53.9062 50.065 50.2428 57.102 44.5312 61.6877ZM82.0312 3.125C94.9062 3.125 100.991 19.0844 91.3951 27.6674C91.2348 24.3115 89.3195 21.4461 86.5664 19.9188C90.3197 15.9564 87.5104 9.375 82.0312 9.375C76.5514 9.375 73.7408 15.96 77.499 19.9219C74.7395 21.4525 72.8287 24.334 72.6678 27.6678C63.0711 19.0848 69.1564 3.125 82.0312 3.125ZM78.9062 15.625C78.9062 13.902 80.3082 12.5 82.0312 12.5C83.7543 12.5 85.1562 13.902 85.1562 15.625C85.1562 17.348 83.7543 18.75 82.0312 18.75C80.3082 18.75 78.9062 17.348 78.9062 15.625ZM75.7812 29.7797V28.125C75.7812 24.6787 78.585 21.875 82.0312 21.875C85.4832 21.875 88.2812 24.6727 88.2812 28.125V29.7797C84.424 31.7021 79.7932 31.7791 75.7812 29.7797Z" fill="url(#paint0_linear_2731_30535)"/>
</g>
<defs>
<linearGradient id="paint0_linear_2731_30535" x1="50" y1="0" x2="50" y2="100" gradientUnits="userSpaceOnUse">
<stop stop-color="#143AC1"/>
<stop offset="1" stop-color="#5D99F8"/>
</linearGradient>
<clipPath id="clip0_2731_30535">
<rect width="100" height="100" fill="white"/>
</clipPath>
</defs>
</svg>
