<svg width="50" height="50" viewBox="0 0 50 50" fill="none" xmlns="http://www.w3.org/2000/svg">
<path d="M46.6801 6.38341C49.2362 15.691 45.3553 27.549 36.8246 34.1686C36.7572 32.1793 35.9633 30.2106 34.4457 28.693L25.0902 38.0484L15.015 27.9733L24.3705 18.6178C22.8519 17.0992 20.8832 16.3063 18.8939 16.2389C25.5892 7.62335 37.4648 3.85264 46.6801 6.38341Z" fill="#C6DEFF"/>
<path d="M38.7631 14.3003C40.7504 16.2866 40.7504 19.5093 38.7631 21.4966C36.7758 23.4839 33.5541 23.4839 31.5668 21.4966C29.5795 19.5093 29.5795 16.2866 31.5668 14.3003C33.5541 12.313 36.7758 12.313 38.7631 14.3003ZM36.8246 34.1685C36.8285 34.2622 36.8304 34.3569 36.8304 34.4507C36.8304 36.5337 36.0355 38.6177 34.4457 40.2075L27.2494 47.4038L25.0902 38.0483L34.4457 28.6929C35.9633 30.2105 36.7572 32.1792 36.8246 34.1685ZM18.8939 16.2388C20.8832 16.3062 22.8519 17.0991 24.3705 18.6177L15.015 27.9731L5.65955 25.814L12.8558 18.6177C14.4457 17.0278 16.5297 16.2329 18.6127 16.2329C18.7064 16.2329 18.8002 16.2349 18.8939 16.2388Z" fill="white"/>
<path d="M36.3217 16.7417C36.9613 17.3804 36.9613 18.4165 36.3217 19.0552C35.683 19.6938 34.6469 19.6938 34.0082 19.0552C33.3695 18.4165 33.3695 17.3804 34.0082 16.7417C34.6469 16.1021 35.683 16.1021 36.3217 16.7417Z" fill="white"/>
<path d="M36.8239 35.1452C36.6957 35.1454 36.5687 35.1203 36.4503 35.0713C36.3318 35.0222 36.2242 34.9503 36.1336 34.8595C35.7523 34.4781 35.7518 33.8603 36.1331 33.4788L36.1341 33.4779C36.163 33.4489 36.1937 33.4219 36.226 33.3969C37.0406 32.7646 37.8148 32.0819 38.5442 31.3529C44.8589 25.0391 47.8277 15.184 45.8789 7.18449C37.8797 5.23586 28.0245 8.20393 21.7106 14.5182C20.9813 15.2483 20.2982 16.0231 19.6652 16.838C19.6353 16.8764 19.6027 16.9125 19.5675 16.9459C19.177 17.3179 18.5584 17.3033 18.1864 16.9127C18.0221 16.7404 17.9265 16.5141 17.9174 16.2762C17.9084 16.0383 17.9865 15.8054 18.1372 15.6211C18.8162 14.7487 19.5483 13.9191 20.3295 13.1369C23.7448 9.7217 28.0884 7.1758 32.8906 5.77473C37.7315 4.36223 42.5892 4.24699 46.9388 5.44172C47.1021 5.48654 47.2509 5.57308 47.3707 5.69283C47.4904 5.81257 47.577 5.96142 47.6218 6.12473C48.8163 10.4743 48.7012 15.3321 47.2886 20.1729C45.8873 24.9752 43.3411 29.3188 39.9253 32.7341C39.1412 33.5178 38.3091 34.2519 37.4336 34.9321C37.2605 35.0703 37.0455 35.1455 36.8239 35.1452ZM25.0903 39.0249C24.962 39.0251 24.835 38.9999 24.7165 38.9508C24.598 38.9017 24.4903 38.8297 24.3997 38.7389L14.3245 28.6636C13.9432 28.2822 13.9433 27.6639 14.3246 27.2824C14.7061 26.9012 15.3243 26.9013 15.7057 27.2826L25.7808 37.3577C26.1621 37.7391 26.1621 38.3574 25.7808 38.7389C25.6902 38.8297 25.5826 38.9017 25.4641 38.9508C25.3456 38.9999 25.2185 39.0251 25.0903 39.0249Z" fill="#0C5BC6"/>
<path d="M27.2493 48.3804C27.0285 48.3804 26.8142 48.3056 26.6414 48.1681C26.4686 48.0306 26.3475 47.8387 26.2978 47.6235L24.1386 38.268C24.1014 38.1066 24.1058 37.9384 24.1514 37.7792C24.1971 37.62 24.2825 37.475 24.3996 37.3579L33.755 28.0024C34.1365 27.6212 34.7546 27.6212 35.1362 28.0024C36.775 29.6412 37.721 31.8178 37.8004 34.1317C37.8047 34.2365 37.8069 34.3439 37.8069 34.4508C37.8069 36.8862 36.8584 39.1759 35.1361 40.8982L27.9399 48.0945C27.8492 48.1852 27.7415 48.2571 27.623 48.3062C27.5045 48.3552 27.3775 48.3805 27.2493 48.3804ZM26.1634 38.3562L27.8047 45.4674L33.7551 39.517C35.1085 38.1637 35.8539 36.3645 35.8539 34.4507C35.8539 34.3706 35.8522 34.2894 35.8489 34.2091L35.8486 34.2015C35.798 32.7112 35.2897 31.2932 34.3988 30.1208L26.1634 38.3562ZM15.015 28.9498C14.9418 28.9498 14.8683 28.9416 14.7954 28.9248L5.43989 26.7656C5.27002 26.7264 5.11373 26.6425 4.98726 26.5225C4.86079 26.4025 4.76875 26.2508 4.72069 26.0833C4.67264 25.9157 4.67032 25.7383 4.71399 25.5695C4.75765 25.4008 4.8457 25.2467 4.969 25.1235L12.1653 17.9272C13.8876 16.2049 16.1774 15.2564 18.6126 15.2564C18.7172 15.2564 18.8241 15.2586 18.9302 15.263C21.2448 15.3422 23.422 16.2882 25.061 17.9271C25.2441 18.1103 25.347 18.3586 25.347 18.6176C25.347 18.8766 25.2441 19.125 25.061 19.3082L15.7055 28.6637C15.5224 28.8469 15.274 28.9498 15.015 28.9498ZM7.59595 25.2587L14.7072 26.9L22.9426 18.6645C21.7701 17.7736 20.3517 17.2653 18.8609 17.2148L18.8533 17.2145C18.7731 17.2112 18.6929 17.2095 18.6127 17.2094C16.6991 17.2094 14.8999 17.9548 13.5464 19.3082L7.59595 25.2587ZM35.1649 23.9607C33.6118 23.9607 32.0585 23.3695 30.8762 22.1872C29.7307 21.0417 29.0998 19.5184 29.0998 17.8981C29.0998 16.2778 29.7307 14.7547 30.8764 13.6095C33.2411 11.245 37.0887 11.2451 39.4536 13.6097C40.5991 14.7548 41.23 16.2778 41.23 17.8981C41.23 19.5184 40.5991 21.0416 39.4536 22.1872C38.2711 23.3696 36.718 23.9607 35.1649 23.9607ZM35.1648 13.7884C34.1119 13.7884 33.0589 14.1892 32.2574 14.9909C31.4806 15.7672 31.0529 16.7997 31.0529 17.8982C31.0529 18.9967 31.4806 20.0295 32.2574 20.8061C33.034 21.5828 34.0666 22.0106 35.1649 22.0106C36.2632 22.0106 37.2958 21.5828 38.0724 20.8061C38.8492 20.0295 39.2769 18.9967 39.2769 17.8982C39.2769 16.7998 38.8492 15.7673 38.0726 14.9911C37.2709 14.1893 36.2178 13.7884 35.1648 13.7884Z" fill="#0C5BC6"/>
<path d="M35.1649 20.5097C34.4958 20.5097 33.8269 20.2551 33.3176 19.7458C32.299 18.7271 32.299 17.0698 33.3176 16.0512C33.8105 15.5575 34.4667 15.2854 35.1649 15.2854C35.863 15.2854 36.5193 15.5575 37.0126 16.0518C37.5058 16.544 37.778 17.2003 37.778 17.8984C37.778 18.5964 37.506 19.2524 37.0122 19.7458C36.5029 20.255 35.8338 20.5097 35.1649 20.5097ZM35.1649 17.2385C35.0783 17.2382 34.9926 17.2552 34.9127 17.2884C34.8327 17.3215 34.7602 17.3702 34.6992 17.4316C34.4416 17.6893 34.4416 18.1076 34.6987 18.3646C34.8224 18.4881 34.99 18.5575 35.1648 18.5575C35.3396 18.5575 35.5073 18.4881 35.631 18.3646L35.6316 18.3641C35.693 18.3031 35.7418 18.2305 35.7749 18.1506C35.8081 18.0706 35.8251 17.9849 35.8249 17.8983C35.8251 17.8118 35.8081 17.7261 35.7749 17.6461C35.7418 17.5662 35.693 17.4937 35.6316 17.4327C35.5706 17.371 35.4979 17.3221 35.4177 17.2887C35.3376 17.2554 35.2517 17.2383 35.1649 17.2385ZM14.1898 44.2632C14.0615 44.2633 13.9345 44.2382 13.816 44.1891C13.6975 44.14 13.5899 44.068 13.4993 43.9771C13.1179 43.5958 13.1179 42.9774 13.4993 42.596L21.5686 34.5267C21.95 34.1454 22.5683 34.1454 22.9498 34.5267C23.3311 34.908 23.3311 35.5264 22.9498 35.9078L14.8804 43.9771C14.7898 44.068 14.6822 44.14 14.5636 44.189C14.4451 44.2381 14.3181 44.2633 14.1898 44.2632ZM5.09116 45.8101C4.96289 45.8102 4.83586 45.785 4.71736 45.7359C4.59885 45.6869 4.49122 45.6148 4.40063 45.524C4.01929 45.1427 4.01929 44.5243 4.40063 44.1429L17.7922 30.7513C18.1737 30.37 18.7919 30.3701 19.1734 30.7513C19.5547 31.1326 19.5547 31.751 19.1734 32.1324L5.78179 45.524C5.69117 45.6148 5.58352 45.6868 5.465 45.7359C5.34648 45.785 5.21944 45.8102 5.09116 45.8101ZM2.53647 6.71924C2.40821 6.7194 2.28117 6.69421 2.16267 6.64512C2.04417 6.59603 1.93653 6.52402 1.84595 6.4332C1.4646 6.05186 1.4646 5.4335 1.84595 5.05205C4.05952 2.83857 7.00239 1.61963 10.1326 1.61963C13.2628 1.61963 16.2055 2.83857 18.4185 5.05215C18.7999 5.4335 18.7998 6.05186 18.4184 6.4333C18.0369 6.81445 17.4186 6.81436 17.0374 6.43311C15.1932 4.58857 12.7411 3.57275 10.1326 3.57275C7.52407 3.57275 5.07163 4.58857 3.2271 6.4332C3.13649 6.52401 3.02883 6.59602 2.91032 6.6451C2.7918 6.69419 2.66475 6.71938 2.53647 6.71924Z" fill="#0C5BC6"/>
<path d="M14.352 10.0952C14.102 10.0952 13.852 9.99976 13.6613 9.80894C12.7189 8.86616 11.4656 8.34683 10.1323 8.34683C8.79899 8.34683 7.54567 8.86606 6.60328 9.80894C6.22194 10.1905 5.60358 10.1906 5.22223 9.80923C4.84078 9.42798 4.84059 8.80972 5.22194 8.42817C6.53326 7.11626 8.27711 6.3938 10.1323 6.3938C11.9875 6.3938 13.7313 7.11626 15.0427 8.42827C15.424 8.80972 15.4239 9.42798 15.0424 9.80933C14.9518 9.90007 14.8442 9.97204 14.7257 10.0211C14.6073 10.0701 14.4802 10.0953 14.352 10.0952ZM11.5131 12.934C11.3849 12.9342 11.2578 12.909 11.1393 12.8599C11.0208 12.8108 10.9132 12.7388 10.8226 12.648C10.7322 12.557 10.6246 12.4849 10.5061 12.4358C10.3876 12.3867 10.2606 12.3615 10.1323 12.3619C10.004 12.3615 9.877 12.3867 9.75853 12.4358C9.64005 12.4849 9.53248 12.557 9.44205 12.6479C9.0608 13.0293 8.44244 13.0294 8.061 12.648C7.67965 12.2667 7.67955 11.6484 8.061 11.2669C8.61432 10.7135 9.34996 10.4087 10.1324 10.4087C10.9148 10.4087 11.6505 10.7135 12.2038 11.2668C12.5851 11.6483 12.5851 12.2666 12.2038 12.648C12.1132 12.7388 12.0055 12.8108 11.887 12.8599C11.7685 12.909 11.6414 12.9342 11.5131 12.934Z" fill="#0C5BC6"/>
</svg>
